HIERARCHY
ROOT simHips
{
  OFFSET -150.754 99.7844 60.9346
  CHANNELS 6 Xposition Yposition Zposition Zrotation Xrotation Yrotation
  JOINT simSpine
  {
    OFFSET -0.000355721 21.3001 -0.016921
    CHANNELS 3 Zrotation Xrotation Yrotation
    JOINT simLeftArm
    {
      OFFSET 13.5181 21.3012 0
      CHANNELS 3 Zrotation Xrotation Yrotation
      JOINT simLeftForeArm
      {
        OFFSET 24.5783 0 0
        CHANNELS 3 Zrotation Xrotation Yrotation
        JOINT simLeftHand
        {
          OFFSET 24.5783 0 0
          CHANNELS 3 Zrotation Xrotation Yrotation
          End Site
          {
            OFFSET 7.32568 1.52588e-05 0.0169305
          }
        }
      }
    }
    JOINT simHead
    {
      OFFSET 0 27.4458 -0.00489235
      CHANNELS 3 Zrotation Xrotation Yrotation
      End Site
      {
        OFFSET 0 0 0
      }
    }
    JOINT simRightArm
    {
      OFFSET -13.5174 21.3012 0
      CHANNELS 3 Zrotation Xrotation Yrotation
      JOINT simRightForeArm
      {
        OFFSET -24.5783 0 0
        CHANNELS 3 Zrotation Xrotation Yrotation
        JOINT simRightHand
        {
          OFFSET -24.5783 0 0
          CHANNELS 3 Zrotation Xrotation Yrotation
          End Site
          {
            OFFSET -7.32568 1.52588e-05 0.0169305
          }
        }
      }
    }
  }
  JOINT simRightUpLeg
  {
    OFFSET -8.44614 -9.41038 0.835684
    CHANNELS 3 Zrotation Xrotation Yrotation
    JOINT simRightLeg
    {
      OFFSET 0 -40.9639 0
      CHANNELS 3 Zrotation Xrotation Yrotation
      JOINT simRightFoot
      {
        OFFSET 0 -40.9639 0
        CHANNELS 3 Zrotation Xrotation Yrotation
        End Site
        {
          OFFSET 0.50614 -9.67405 14.6709
        }
      }
    }
  }
  JOINT simLeftUpLeg
  {
    OFFSET 8.44614 -9.41038 0.835684
    CHANNELS 3 Zrotation Xrotation Yrotation
    JOINT simLeftLeg
    {
      OFFSET 0 -40.9639 0
      CHANNELS 3 Zrotation Xrotation Yrotation
      JOINT simLeftFoot
      {
        OFFSET 0 -40.9639 0
        CHANNELS 3 Zrotation Xrotation Yrotation
        End Site
        {
          OFFSET -0.50614 -9.67405 14.6709
        }
      }
    }
  }
}
MOTION
Frames:	15
Frame Time:	0.0333333
-150.303 99.7672 62.7223 -0.180299 1.59832 0.117369 -0.585874 -0.911541 0.718841 12.4327 -7.52507 2.15564 -1.67761 -0.148079 3.25296e-05 -0.697729 0.0978344 0.431165 1.48249 -4.87598 -5.08481 -8.833 -4.57816 -3.48887 0.336016 0.0650993 5.36928e-05 -0.970249 -0.443065 -0.285317 4.53392 0.068926 -0.172726 0.017857 -0.0113812 0.021 -4.61885 -1.61264 -0.0386704 -1.20173 -1.4001 -0.0337634 -0.0220401 2.3731 -0.0173979 1.22991 -2.64357 0.130285 
-150.307 99.7578 62.7714 -0.180887 1.57565 0.117368 -0.575399 -0.955689 0.681068 12.3903 -7.46133 1.99605 -1.72696 -0.148079 3.25296e-05 -0.861873 0.198047 0.295548 1.60844 -5.05073 -5.08616 -8.73116 -4.48349 -3.50481 0.360723 0.0650993 5.36928e-05 -0.833705 -0.568748 -0.303672 4.53387 0.0623827 -0.146267 0.0385715 0.11272 0.0210001 -4.6574 -1.71555 -0.0925372 -1.21848 -1.28061 -0.0936211 0.0137333 2.26779 -0.0173966 1.23998 -2.65828 0.156798 
-150.322 99.7554 62.8166 -0.164416 1.5687 0.117368 -0.61141 -1.01546 0.645649 12.3784 -7.40051 1.78208 -1.81351 -0.148079 3.25296e-05 -0.899338 0.240327 0.293638 1.71681 -5.24672 -5.09238 -8.60898 -4.28624 -3.52332 0.362359 0.0650993 5.36928e-05 -0.826388 -0.672928 -0.372605 4.53416 0.148276 -0.174347 0.00812513 0.0191954 0.021 -4.63239 -1.72405 -0.0618179 -1.22798 -1.26166 -0.204407 0.0134608 2.30217 -0.0173971 1.26444 -2.69105 0.279544 
-150.341 99.751 62.8515 -0.155132 1.5531 0.11164 -0.634061 -1.04493 0.599004 12.3371 -7.43349 1.66383 -1.80239 -0.148079 3.25296e-05 -0.81764 0.315335 0.39422 1.71773 -5.41406 -5.07253 -8.529 -4.24289 -3.52485 0.372366 0.0650993 5.36928e-05 -0.828388 -0.561242 -0.310603 4.53421 0.197521 -0.145556 0.000310425 0.0196964 0.021 -4.73962 -1.71155 -0.0750505 -1.20692 -1.26856 -0.199047 -0.0240782 2.40082 -0.0173983 1.2904 -2.76626 0.280737 
-150.343 99.7488 62.8918 -0.156328 1.5164 0.0528302 -0.612234 -1.05082 0.592494 12.2447 -7.4002 1.64941 -1.72952 -0.148079 3.25296e-05 -0.697267 0.279241 0.285674 1.62001 -5.55175 -5.01811 -8.57679 -4.03315 -3.49232 0.400143 0.0650993 5.36928e-05 -0.772199 -0.153153 -0.281878 4.52611 0.258179 -0.121622 0.0294727 0.0153305 0.021 -4.7401 -1.72629 -0.0849139 -1.2284 -1.14501 -0.152833 0.0128093 2.29106 -0.0173969 1.27742 -2.73457 0.305642 
-150.344 99.7468 62.9333 -0.169028 1.51432 0.00954106 -0.573594 -1.10931 0.565321 12.1649 -7.34164 1.58717 -1.68703 -0.148079 3.25296e-05 -0.730413 0.208588 0.263122 1.54003 -5.64082 -4.84952 -8.62437 -3.92252 -3.47851 0.425897 0.0650993 5.36928e-05 -0.800879 -0.045459 -0.246389 4.54785 0.232885 -0.0873 0.0216019 0.121418 0.0210001 -4.75075 -1.78165 -0.0747492 -1.19271 -1.1596 -0.127033 -0.0325057 2.39394 -0.0173982 1.29968 -2.81145 0.336908 
-150.347 99.7449 62.9716 -0.156128 1.51487 -0.0426059 -0.55887 -1.19247 0.546585 12.1496 -7.28762 1.51062 -1.75016 -0.148079 3.25296e-05 -0.721723 0.0464158 0.239784 1.45026 -5.51032 -4.72857 -8.683 -4.07321 -3.44412 0.464992 0.0651889 5.36928e-05 -0.921674 -0.000222017 -0.261975 4.54513 0.297809 -0.0519451 0.00750511 0.0331143 0.021 -4.76103 -1.7464 -0.0660972 -1.20962 -1.09284 -0.0960589 -0.0251458 2.32798 -0.0173974 1.34492 -2.77886 0.362148 
-150.346 99.7435 62.9933 -0.13681 1.44616 -0.0781827 -0.545614 -1.17798 0.505456 12.1221 -7.39206 1.43997 -1.80757 -0.148079 3.25296e-05 -0.659702 0.0430939 0.327624 1.30336 -5.31215 -4.73036 -8.79384 -4.0726 -3.4175 0.463465 0.0651646 5.36928e-05 -0.876796 -0.0153925 -0.316236 4.50934 0.337084 -0.101464 0.0410703 0.123337 0.0210001 -4.7997 -1.79886 -0.0166844 -1.22378 -1.04635 -0.0721808 -0.0325203 2.3917 -0.0173982 1.39336 -2.82658 0.35809 
-150.335 99.7416 63.0098 -0.131046 1.36838 -0.137912 -0.514239 -1.14962 0.487989 12.0926 -7.36849 1.44481 -1.77951 -0.148079 3.25296e-05 -0.849158 0.0827593 0.303853 1.21876 -5.18021 -4.71105 -8.95442 -4.24418 -3.34508 0.512552 0.0650334 5.36928e-05 -0.920685 0.193871 -0.242565 4.50861 0.480607 -0.000456677 0.0202048 0.0410829 0.021 -4.82265 -1.75748 -0.0481759 -1.26297 -0.892184 -0.0964752 0.00997831 2.31869 -0.0125035 1.37212 -2.83743 0.438004 
-150.331 99.7403 63.0176 -0.102331 1.29944 -0.151701 -0.526194 -1.15327 0.461534 12.0518 -7.21273 1.37177 -1.74246 -0.145816 3.25296e-05 -0.715801 0.12461 0.304622 1.22911 -5.06577 -4.66466 -9.0607 -4.3151 -3.32882 0.510845 0.0648019 5.36928e-05 -1.06001 0.305729 -0.261417 4.47669 0.575664 -0.00630995 0.0122659 0.0143723 0.021 -4.80247 -1.78349 -0.0464187 -1.29901 -0.796722 -0.173488 0.00742206 2.28176 -0.00962303 1.36609 -2.8022 0.516585 
-150.33 99.7392 63.0148 -0.0957879 1.26754 -0.122991 -0.544285 -1.18169 0.395973 12.0167 -7.10825 1.33563 -1.63613 -0.139024 3.25296e-05 -0.578665 0.207602 0.31738 1.23409 -4.88688 -4.64838 -9.09217 -4.3555 -3.31635 0.478241 0.0644771 5.36928e-05 -1.08046 0.289401 -0.257872 4.47866 0.628893 -0.00898945 -0.00108228 -0.0161898 0.021 -4.81921 -1.76771 -0.0603133 -1.27995 -0.821822 -0.0143344 -0.0332562 2.38299 -0.00792616 1.3657 -2.84357 0.349065 
-150.329 99.7384 63.0168 -0.100871 1.26948 -0.107717 -0.545745 -1.23864 0.339045 11.9635 -7.11673 1.32166 -1.51268 -0.130697 3.25296e-05 -0.561041 0.099743 0.221637 1.2869 -4.73326 -4.65542 -9.05235 -4.4162 -3.26488 0.437326 0.0640658 5.36928e-05 -1.11861 0.286471 -0.230927 4.48166 0.615297 -0.0461467 0.0132141 0.00575439 0.021 -4.80418 -1.79675 -0.0508593 -1.29083 -0.766168 0.0246734 0.00676939 2.2741 -0.00676415 1.3375 -2.8072 0.275747 
-150.329 99.7375 63.0042 -0.107394 1.27835 -0.0915958 -0.569388 -1.28932 0.277758 11.9185 -7.06759 1.26346 -1.44889 -0.12782 3.25296e-05 -0.493642 0.0468558 0.153044 1.27596 -4.61954 -4.7456 -8.9602 -4.5448 -3.20102 0.422011 0.0635748 5.36928e-05 -1.10907 0.356468 -0.145973 4.4822 0.573546 -0.00242133 0.0184532 0.0494901 0.021 -4.76533 -1.82893 -0.112194 -1.28127 -0.799993 -0.0986736 -0.0145195 2.30236 -0.00572775 1.34871 -2.82218 0.38805 
-150.334 99.7369 62.9764 -0.106514 1.27937 -0.0619871 -0.606096 -1.31227 0.245567 11.8905 -7.0013 1.14836 -1.43768 -0.126564 3.25296e-05 -0.452141 0.166831 0.226308 1.25633 -4.622 -4.77284 -8.85935 -4.53205 -3.16341 0.439258 0.063011 5.36928e-05 -1.12904 0.35719 -0.256079 4.46965 0.541779 -0.019393 0.0385462 0.0710443 0.0210001 -4.82279 -1.80262 -0.127491 -1.2681 -0.857476 -0.0907839 -0.0262608 2.36925 -0.00481032 1.39197 -2.85341 0.325726 
-150.315 99.7355 62.9528 -0.118729 1.24588 -0.0854662 -0.579247 -1.31481 0.267163 11.8012 -6.97924 1.05181 -1.4454 -0.126622 3.25296e-05 -0.473926 0.123635 0.228089 1.16024 -4.64105 -4.71958 -8.78136 -4.40222 -3.14794 0.445157 0.0623811 5.36928e-05 -1.04812 0.224839 -0.305494 4.49127 0.582031 -0.0153845 0.0128207 0.0355337 0.021 -4.75084 -1.79627 -0.0993875 -1.26288 -0.845288 -0.0641858 -0.040491 2.39558 -0.00400555 1.34183 -2.86804 0.367535 
